<svg width="140" height="40" fill="none" xmlns="http://www.w3.org/2000/svg"><path d="M90 0v40H50V0h40Zm50 0v40h-40V0h40ZM40 0v40H0V0h40Zm31.838 8.512a13.95 13.95 0 0 0-4.875.8 10.488 10.488 0 0 0-3.75 2.313 10.1 10.1 0 0 0-2.376 3.625A12.948 12.948 0 0 0 60 20a13.9 13.9 0 0 0 .788 4.825 10.087 10.087 0 0 0 2.287 3.625 10 10 0 0 0 3.65 2.262c1.563.545 3.208.811 4.863.788a16.25 16.25 0 0 0 3.875-.45A12.652 12.652 0 0 0 78.7 29.8v-4.262a12.025 12.025 0 0 1-6.438 1.825 8.175 8.175 0 0 1-3.9-.875 5.713 5.713 0 0 1-2.437-2.5A8.663 8.663 0 0 1 65.1 20a8.5 8.5 0 0 1 .875-3.988 5.95 5.95 0 0 1 2.5-2.5 8.375 8.375 0 0 1 3.95-.875 11.25 11.25 0 0 1 3.213.45c.997.277 1.949.698 2.825 1.25V10a12.5 12.5 0 0 0-3.1-1.125 15.337 15.337 0 0 0-3.525-.363Zm47.862.238h-8.45v22.5h8.962c1.558.04 3.109-.228 4.563-.788a6.523 6.523 0 0 0 2.925-2.237 5.872 5.872 0 0 0 1.05-3.463 5.735 5.735 0 0 0-1.087-3.512c-.767-1-1.83-1.73-3.038-2.087a4.873 4.873 0 0 0 2.875-4.626 5.001 5.001 0 0 0-2.025-4.287 9.626 9.626 0 0 0-5.775-1.5Zm-100 0h-8.45v22.5h8.962c1.558.04 3.109-.228 4.563-.788a6.525 6.525 0 0 0 2.925-2.237 5.875 5.875 0 0 0 1.05-3.463 5.737 5.737 0 0 0-1.087-3.512c-.767-1-1.83-1.73-3.038-2.087a4.876 4.876 0 0 0 2.875-4.626 5 5 0 0 0-2.025-4.287 9.625 9.625 0 0 0-5.775-1.5Zm100.15 12.775c2.788 0 4.188 1.025 4.188 3.088a2.499 2.499 0 0 1-1.1 2.212c-.948.57-2.046.84-3.15.775h-3.976v-6.075h4.038Zm-100 0c2.787 0 4.188 1.025 4.188 3.088a2.5 2.5 0 0 1-1.1 2.212c-.948.57-2.046.84-3.15.775h-3.976v-6.075h4.038Zm99.412-9.125c2.426 0 3.651.887 3.651 2.675a2.623 2.623 0 0 1-.938 2.15 4.1 4.1 0 0 1-2.713.775h-3.45v-5.6h3.45Zm-100 0c2.425 0 3.65.887 3.65 2.675a2.625 2.625 0 0 1-.937 2.15 4.1 4.1 0 0 1-2.713.775h-3.45v-5.6h3.45Z" fill="#0A051E"/></svg>