<svg width="112" height="32" fill="none" xmlns="http://www.w3.org/2000/svg"><path d="M72 0v32H40V0h32Zm40 0v32H80V0h32ZM32 0v32H0V0h32Zm25.47 6.81a11.16 11.16 0 0 0-3.9.64 8.39 8.39 0 0 0-3 1.85 8.08 8.08 0 0 0-1.9 2.9A10.36 10.36 0 0 0 48 16a11.12 11.12 0 0 0 .63 3.86 8.07 8.07 0 0 0 1.83 2.9 8 8 0 0 0 2.92 1.81c1.25.435 2.566.649 3.89.63a13.003 13.003 0 0 0 3.1-.36c.905-.213 1.777-.55 2.59-1v-3.41a9.62 9.62 0 0 1-5.15 1.46 6.54 6.54 0 0 1-3.12-.7 4.57 4.57 0 0 1-1.95-2 6.93 6.93 0 0 1-.66-3.19 6.8 6.8 0 0 1 .7-3.19 4.76 4.76 0 0 1 2-2 6.7 6.7 0 0 1 3.16-.7 9 9 0 0 1 2.57.36 8.47 8.47 0 0 1 2.26 1V8a10 10 0 0 0-2.48-.9 12.27 12.27 0 0 0-2.82-.29ZM95.76 7H89v18h7.17a9.501 9.501 0 0 0 3.65-.63 5.218 5.218 0 0 0 2.34-1.79 4.706 4.706 0 0 0 .84-2.77 4.594 4.594 0 0 0-.87-2.81 4.77 4.77 0 0 0-2.43-1.67 3.902 3.902 0 0 0 2.3-3.7 3.996 3.996 0 0 0-1.62-3.43A7.7 7.7 0 0 0 95.76 7Zm-80 0H9v18h7.17a9.501 9.501 0 0 0 3.65-.63 5.22 5.22 0 0 0 2.34-1.79 4.7 4.7 0 0 0 .84-2.77 4.59 4.59 0 0 0-.87-2.81 4.77 4.77 0 0 0-2.43-1.67 3.9 3.9 0 0 0 2.3-3.7 4 4 0 0 0-1.62-3.43A7.7 7.7 0 0 0 15.76 7Zm80.12 10.22c2.23 0 3.35.82 3.35 2.47a2 2 0 0 1-.88 1.77 4.38 4.38 0 0 1-2.52.62h-3.18v-4.86h3.23Zm-80 0c2.23 0 3.35.82 3.35 2.47a2 2 0 0 1-.88 1.77 4.38 4.38 0 0 1-2.52.62h-3.18v-4.86h3.23Zm79.53-7.3c1.94 0 2.92.71 2.92 2.14a2.1 2.1 0 0 1-.75 1.72 3.28 3.28 0 0 1-2.17.62h-2.76V9.92h2.76Zm-80 0c1.94 0 2.92.71 2.92 2.14a2.1 2.1 0 0 1-.75 1.72 3.28 3.28 0 0 1-2.17.62h-2.76V9.92h2.76Z" fill="#fff"/></svg>