<svg width="18" height="20" viewBox="0 0 18 20" fill="none" xmlns="http://www.w3.org/2000/svg">
<path fill-rule="evenodd" clip-rule="evenodd" d="M13 6.25C13 8.375 11.375 10 9.25 10C7.125 10 5.5 8.375 5.5 6.25C5.5 4.125 7.125 2.5 9.25 2.5C11.375 2.5 13 4.125 13 6.25ZM13.5 10.875C14.75 9.75 15.5 8.125 15.5 6.25C15.5 2.75 12.75 0 9.25 0C5.75 0 3 2.75 3 6.25C3 8.125 3.75 9.75 5 10.875C2.375 11.625 0.5 14 0.5 16.875V20H3V16.875C3 14.75 4.625 13.125 6.75 13.125H11.75C13.875 13.125 15.5 14.75 15.5 16.875V20H18V16.875C18 14 16.125 11.625 13.5 10.875Z" fill="#FF0B0B"/>
</svg>
